# xmcd
#
# Track frame offsets: 
#        150
#        15880
#        35497
#        57535
#        74962
#        90602
#        107662
#        129772
#        147627
#        161282
#        183325
#        201005
#        217800
#        245075
#        268302
#        314857
#        337176
#
# Disc length: 4771 seconds
#
# Revision: 0
# Processed by: cddbd v1.5.2PL0 Copyright (c) Steve Scherf et al.
# Submitted via: ExactAudioCopy v1.1
#
DISCID=0812a111
DTITLE=Various Artist - A Double Dose Of The Blues [CD2] 
DYEAR=2016
DGENRE=Blues
TTITLE0=Jack Bruce, Clem Clempson - Send It For Me
TTITLE1=Georgie Fame - If You Live (Your Time Will Come)
TTITLE2=Duffy Power - Go Down, Sunshine
TTITLE3=Chris Jagger - Racketeer's Blues
TTITLE4=Pete Brown, Dick Heckstall-Smith, Phil Ryan - Rocks In My Bed
TTITLE5=Miller Anderson - Don't Let Me Be Misunderstood
TTITLE6=Maggie Bell, Big Jim Sullivan - Blind Man
TTITLE7=Peter Green, Nigel Watson - Travelling Riverside Blues
TTITLE8=T.S. McPhee - Drop Down Mama
TTITLE9=Jack Bruce, Clem Clempson - I've Got News For You
TTITLE10=Nine Below Zero - Nine Below Zero
TTITLE11=The Pretty Things - Judgement Day
TTITLE12=Otis Grand, Paul Jones - Play On Little Girl, T-Bone Shuffle
TTITLE13=Mick Clarke, Lou Martin - One More Mile To Go
TTITLE14=Max Middleton, Mick Taylor - You Shook Me
TTITLE15=Tom Killner - Midnight Call
TTITLE16=Eli Cook - Sweet Thang
EXTD=
EXTT0=
EXTT1=
EXTT2=
EXTT3=
EXTT4=
EXTT5=
EXTT6=
EXTT7=
EXTT8=
EXTT9=
EXTT10=
EXTT11=
EXTT12=
EXTT13=
EXTT14=
EXTT15=
EXTT16=
PLAYORDER=
